<svg width="25" height="25" viewBox="0 0 25 25" fill="none" xmlns="http://www.w3.org/2000/svg">
<path d="M18.5531 3.29285C17.9741 3.30501 17.3792 3.46703 16.8166 3.8147C15.7421 4.47889 14.7474 5.25936 13.8518 6.14014C11.8159 8.14052 10.7249 10.9064 10.7894 13.7512C10.7973 14.2111 11.1794 14.5932 11.6393 14.6011C14.4835 14.6657 17.2493 13.5745 19.2504 11.5387C20.1299 10.6436 20.9113 9.64972 21.5758 8.57391C22.5035 7.07418 22.1082 5.33887 21.0799 4.31061C20.5658 3.79648 19.8751 3.44086 19.1253 3.32947C18.9378 3.30162 18.7461 3.28879 18.5531 3.29285ZM11.5798 4.33807C9.4751 4.33807 7.37108 4.58704 5.27182 5.08576C4.46172 5.27784 3.82904 5.91065 3.63761 6.7215C2.64106 10.9205 2.64106 15.1369 3.63761 19.3359C3.82931 20.1467 4.46292 20.7791 5.27335 20.9717C9.47184 21.9681 13.6893 21.9679 17.8878 20.9717C18.6985 20.78 19.331 20.1479 19.5235 19.3375C19.5235 19.337 19.5235 19.3364 19.5235 19.3359C19.9154 17.6849 20.1539 16.0331 20.2376 14.3784C20.2471 14.2736 20.2353 14.168 20.2029 14.068C20.1706 13.9679 20.1184 13.8754 20.0494 13.796C19.9805 13.7165 19.8962 13.6519 19.8016 13.6058C19.7071 13.5598 19.6042 13.5333 19.4992 13.5279C19.3941 13.5226 19.2891 13.5385 19.1904 13.5747C19.0916 13.6109 19.0012 13.6667 18.9246 13.7387C18.8479 13.8107 18.7866 13.8975 18.7442 13.9937C18.7019 14.09 18.6794 14.1938 18.6782 14.299C18.5994 15.8568 18.3744 17.4143 18.0038 18.9758C17.9494 19.2045 17.756 19.3983 17.5292 19.4519C17.5287 19.4519 17.5282 19.4519 17.5277 19.4519C13.5564 20.3944 9.60631 20.3944 5.63498 19.4519C5.40635 19.3976 5.21252 19.2026 5.15891 18.9758C4.21639 15.0045 4.21639 11.0529 5.15891 7.08161C5.21268 6.85384 5.40671 6.66067 5.63346 6.60706C5.63346 6.60655 5.63346 6.60604 5.63346 6.60553C7.61861 6.13397 9.59858 5.90057 11.5798 5.90057C11.6833 5.90204 11.7861 5.88291 11.8822 5.84431C11.9783 5.8057 12.0657 5.74839 12.1394 5.6757C12.2131 5.60301 12.2717 5.51639 12.3116 5.42088C12.3516 5.32536 12.3722 5.22286 12.3722 5.11932C12.3722 5.01579 12.3516 4.91329 12.3116 4.81777C12.2717 4.72226 12.2131 4.63564 12.1394 4.56295C12.0657 4.49026 11.9783 4.43295 11.8822 4.39434C11.7861 4.35574 11.6833 4.33661 11.5798 4.33807ZM18.6202 4.83093C18.7243 4.82844 18.8258 4.83612 18.9254 4.8523C19.3237 4.91698 19.6831 5.12323 19.9752 5.41535C20.5594 5.99958 20.8051 6.85038 20.2468 7.75299C20.2394 7.7649 20.2313 7.7762 20.2239 7.78809C19.5723 6.71679 18.6751 5.8192 17.6055 5.1651C17.6164 5.15831 17.6266 5.1505 17.6375 5.14374C17.9762 4.93447 18.3078 4.83841 18.6202 4.83093ZM16.1819 6.16608C17.5214 6.79535 18.5955 7.87177 19.2199 9.21326C18.8795 9.64242 18.5181 10.0532 18.135 10.4431C17.4243 11.1661 16.5906 11.7152 15.6859 12.114C15.3596 10.947 14.4435 10.0309 13.2766 9.70459C13.6753 8.79998 14.2245 7.96584 14.9474 7.25556C14.9474 7.25505 14.9474 7.25454 14.9474 7.25403C15.3384 6.86948 15.751 6.50702 16.1819 6.16608ZM12.7761 11.174C13.4974 11.3337 14.0569 11.8932 14.2165 12.6144C13.6573 12.7533 13.0831 12.8467 12.5014 12.8891C12.5438 12.3073 12.6372 11.7334 12.7761 11.174Z" fill="#EFEEEC"/>
</svg>
