<svg width="24" height="24" viewBox="0 0 24 24" fill="none" xmlns="http://www.w3.org/2000/svg">
<path d="M14.6183 19.9095C13.743 19.977 12.8603 20.0108 12 20.0108C11.139 20.0108 10.2548 19.977 9.378 19.9095C8.9865 19.8795 8.7345 20.313 8.9595 20.634C9.6315 21.5925 10.74 22.221 12 22.221C13.2593 22.221 14.3655 21.5925 15.0368 20.634C15.2618 20.3123 15.009 19.8795 14.6183 19.9095ZM21.0233 14.5718C20.451 14.1698 20.0385 13.569 19.95 12.8753C19.248 7.38601 16.5188 3.14326 13.1123 2.37151C13.1175 2.33101 13.125 2.29051 13.125 2.25001C13.125 2.17501 13.1175 2.10001 13.1025 2.03251C13.0875 1.95751 13.065 1.89001 13.0425 1.82251C13.0125 1.75501 12.975 1.68751 12.9375 1.62751C12.8918 1.56001 12.8475 1.50751 12.795 1.45501C12.3683 1.03501 11.625 1.03501 11.205 1.45501C11.1533 1.50751 11.1075 1.56001 11.0633 1.62751C11.0258 1.68751 10.9875 1.75501 10.9575 1.82251C10.9358 1.89001 10.9125 1.95751 10.8983 2.03251C10.8825 2.10001 10.875 2.17501 10.875 2.25001C10.875 2.29201 10.8833 2.33101 10.8878 2.37151C7.48125 3.14251 4.752 7.38526 4.05 12.8753C3.9615 13.569 3.549 14.1698 2.97675 14.5718C2.49825 14.9078 2.23425 15.276 2.23425 15.6615C2.23425 17.235 6.60675 18.51 12 18.51C17.3933 18.51 21.7658 17.235 21.7658 15.6615C21.7658 15.276 21.5018 14.9078 21.0233 14.5718Z" fill="#F2F2F2"/>
</svg>
