<svg width="30" height="30" viewBox="0 0 30 30" fill="none" xmlns="http://www.w3.org/2000/svg">
<path d="M15 2.8125C8.27812 2.8125 2.8125 8.27812 2.8125 15C2.8125 21.7219 8.27812 27.1875 15 27.1875C21.7219 27.1875 27.1875 21.7219 27.1875 15C27.1875 8.27812 21.7219 2.8125 15 2.8125ZM19.6875 15.9375H15.9375V19.6875C15.9375 20.205 15.5175 20.625 15 20.625C14.4825 20.625 14.0625 20.205 14.0625 19.6875V15.9375H10.3125C9.795 15.9375 9.375 15.5175 9.375 15C9.375 14.4825 9.795 14.0625 10.3125 14.0625H14.0625V10.3125C14.0625 9.795 14.4825 9.375 15 9.375C15.5175 9.375 15.9375 9.795 15.9375 10.3125V14.0625H19.6875C20.205 14.0625 20.625 14.4825 20.625 15C20.625 15.5175 20.205 15.9375 19.6875 15.9375Z" fill="#187A3F"/>
</svg>
