<svg width="24" height="24" viewBox="0 0 24 24" fill="none" xmlns="http://www.w3.org/2000/svg">
<g clip-path="url(#clip0_192_303)">
<path d="M23.761 12.273C23.761 11.454 23.694 10.639 23.554 9.83197H12.237V14.452H18.717C18.449 15.943 17.585 17.261 16.322 18.098V21.099H20.19C22.455 19.014 23.761 15.925 23.761 12.273Z" fill="#4285F4"/>
<path d="M12.237 24C15.475 24 18.203 22.938 20.19 21.102L16.322 18.101C15.245 18.831 13.86 19.248 12.237 19.248C9.10801 19.248 6.451 17.139 5.50101 14.296H1.51801V17.388C3.55401 21.443 7.70201 24 12.237 24Z" fill="#187A3F"/>
<path d="M5.50199 14.297C4.99999 12.808 4.99999 11.192 5.50199 9.704V6.612H1.51799C-0.18601 10.003 -0.18601 13.999 1.51799 17.39L5.50199 14.297Z" fill="#FBBC04"/>
<path d="M12.237 4.75201C13.948 4.72501 15.6 5.37001 16.839 6.55101L20.266 3.12701C18.093 1.08801 15.217 -0.0319858 12.237 0.00101423C7.702 0.00101423 3.553 2.56101 1.517 6.61201L5.501 9.70401C6.451 6.86101 9.109 4.75201 12.237 4.75201Z" fill="#EA4335"/>
</g>
<defs>
<clipPath id="clip0_192_303">
<rect width="24" height="24" fill="white"/>
</clipPath>
</defs>
</svg>
