<svg width="30" height="30" viewBox="0 0 30 30" fill="none" xmlns="http://www.w3.org/2000/svg">
<path d="M20.625 4.6875C19.3818 4.6875 18.1895 5.18136 17.3104 6.06044C16.4314 6.93951 15.9375 8.1318 15.9375 9.375C15.9375 10.6182 16.4314 11.8105 17.3104 12.6896C18.1895 13.5686 19.3818 14.0625 20.625 14.0625C21.8682 14.0625 23.0605 13.5686 23.9396 12.6896C24.8186 11.8105 25.3125 10.6182 25.3125 9.375C25.3125 8.1318 24.8186 6.93951 23.9396 6.06044C23.0605 5.18136 21.8682 4.6875 20.625 4.6875ZM9.375 6.5625C8.1318 6.5625 6.93951 7.05636 6.06044 7.93544C5.18136 8.81451 4.6875 10.0068 4.6875 11.25C4.6875 12.4932 5.18136 13.6855 6.06044 14.5646C6.93951 15.4436 8.1318 15.9375 9.375 15.9375C10.6182 15.9375 11.8105 15.4436 12.6896 14.5646C13.5686 13.6855 14.0625 12.4932 14.0625 11.25C14.0625 10.0068 13.5686 8.81451 12.6896 7.93544C11.8105 7.05636 10.6182 6.5625 9.375 6.5625ZM20.2075 15.9375C18.5678 15.9375 16.3837 16.3748 14.729 17.2101C16.8618 18.1579 18.6273 19.6941 18.6273 22.0276C18.6283 22.8488 18.3795 23.6004 18.0139 24.267C18.7358 24.357 19.4838 24.4135 20.246 24.4135C22.1388 24.4135 24.0805 24.1071 25.7098 23.3496C26.6848 22.8968 28.1278 21.5672 28.1268 20.1544C28.125 17.3466 23.0481 15.9375 20.2075 15.9375ZM8.83484 17.8125C6.00078 17.8125 0.9375 19.2207 0.9375 22.0294C0.9375 23.4038 2.33877 24.7196 3.33252 25.2136C4.71064 25.8999 6.76644 26.3251 8.92456 26.3251C10.8221 26.3251 12.7986 25.9952 14.458 25.2246C15.3843 24.7952 16.7533 23.4816 16.7523 22.0294C16.7533 19.2207 11.6764 17.8125 8.83484 17.8125Z" fill="#B1ACA0"/>
</svg>
