<svg width="30" height="30" viewBox="0 0 30 30" fill="none" xmlns="http://www.w3.org/2000/svg">
<path d="M15 2.8125C8.27812 2.8125 2.8125 8.27812 2.8125 15C2.8125 21.7219 8.27812 27.1875 15 27.1875C21.7219 27.1875 27.1875 21.7219 27.1875 15C27.1875 8.27812 21.7219 2.8125 15 2.8125ZM21.5016 15.3328C21.3178 15.8166 20.7769 16.0584 20.2922 15.8756C18.8034 15.3094 16.9003 15.3187 15.3244 15.8991C15.2194 15.9384 15.1097 15.9572 15.0009 15.9572C14.775 15.9572 14.5528 15.8756 14.3784 15.7209C14.1206 15.4912 14.0091 15.1388 14.0887 14.8031C14.5013 13.0678 14.6925 10.4812 13.2534 8.01187C12.9928 7.56469 13.1438 6.99094 13.5909 6.73031C14.0372 6.46969 14.6128 6.62063 14.8725 7.06781C16.005 9.01031 16.4531 11.3344 16.1766 13.7381C17.7947 13.4503 19.5244 13.5787 20.9588 14.1244C21.4425 14.3081 21.6853 14.8491 21.5016 15.3328Z" fill="#B1ACA0"/>
</svg>
