<svg width="30" height="30" viewBox="0 0 30 30" fill="none" xmlns="http://www.w3.org/2000/svg">
<path d="M26.6691 10.8591C26.5003 9.53066 25.4906 8.16754 24.0281 7.29941C22.6922 6.51941 21.3844 5.73004 20.1216 4.96785C18.8025 4.17098 17.5313 3.40504 16.3294 2.70848C15.5475 2.25473 14.6503 2.2491 13.8675 2.68973C12.5466 3.4341 11.145 4.2666 9.68626 5.13098C8.49094 5.8416 7.25719 6.57473 5.99157 7.3041C4.51782 8.1666 3.49782 9.53535 3.32907 10.8778C2.88001 14.4938 3.0797 18.1613 3.92719 21.7941C4.39782 23.6485 6.35251 25.6304 8.21344 26.1282C10.4653 26.6832 12.7322 26.9607 15 26.9607C17.2678 26.9607 19.5347 26.6832 21.7866 26.1282C21.7922 26.1272 21.7988 26.1254 21.8044 26.1235C23.6484 25.6304 25.6031 23.6475 26.0775 21.7763C26.9213 18.1557 27.1209 14.4835 26.6691 10.8591ZM18.8578 23.7216C18.7575 24.36 18.2625 24.8775 17.6194 24.9422C15.8794 25.1185 14.1375 25.1194 12.4003 24.946C11.7572 24.8813 11.2613 24.3638 11.1609 23.7253C10.8563 21.7857 10.9359 19.846 11.4 17.9054C11.5444 17.3044 12.0066 16.8235 12.5878 16.6116C14.2022 16.0229 15.8156 16.0229 17.43 16.6116C18.0113 16.8235 18.4734 17.3044 18.6178 17.9054C19.0828 19.8441 19.1625 21.7829 18.8578 23.7216Z" fill="white"/>
</svg>
