<svg width="30" height="30" viewBox="0 0 30 30" fill="none" xmlns="http://www.w3.org/2000/svg">
<path d="M15.022 2.81248C14.9755 2.81146 14.929 2.81391 14.8828 2.8198C14.8828 2.8198 6.93325 3.78827 2.93518 10.7849C2.89112 10.8628 2.85844 10.9467 2.83814 11.0339C2.83689 11.0382 2.83566 11.0425 2.83447 11.0467C1.56317 14.6707 1.69206 18.7311 3.13477 22.3077C3.21633 22.5102 3.45336 22.6029 3.64929 22.5073C4.91679 21.8932 7.75609 20.3865 11.0486 17.7887C11.2633 17.619 11.2337 17.2862 10.99 17.1606C8.75355 16.0134 6.20866 14.1472 4.82483 11.3067C8.34212 5.64743 14.8015 4.74349 15 4.71678C15.1985 4.74349 21.6577 5.64678 25.1752 11.3049C23.7977 14.1317 21.2443 16.0037 19.0063 17.1588C18.7635 17.2844 18.7349 17.6172 18.9496 17.7868C22.2336 20.3837 25.071 21.8978 26.3525 22.511C26.5485 22.6047 26.7818 22.5129 26.8634 22.3114C28.3285 18.7059 28.4494 14.6311 27.1582 11.0156C27.1518 10.9921 27.1445 10.9689 27.1362 10.946C27.1345 10.9405 27.1326 10.935 27.1307 10.9295L27.1289 10.9259C27.1115 10.8772 27.09 10.83 27.0648 10.7849C27.0437 10.748 27.0184 10.7171 26.9971 10.6805C22.979 3.78391 15.1172 2.8198 15.1172 2.8198C15.0856 2.81575 15.0538 2.8133 15.022 2.81248ZM14.9854 6.54966C14.737 6.55354 14.5004 6.65579 14.3274 6.83395C14.1544 7.01212 14.0591 7.25165 14.0625 7.49998V10.3125H11.25C11.1258 10.3107 11.0024 10.3337 10.8871 10.38C10.7719 10.4263 10.6669 10.4951 10.5785 10.5823C10.49 10.6696 10.4197 10.7735 10.3718 10.8881C10.3238 11.0027 10.2992 11.1257 10.2992 11.25C10.2992 11.3742 10.3238 11.4972 10.3718 11.6118C10.4197 11.7265 10.49 11.8304 10.5785 11.9176C10.6669 12.0049 10.7719 12.0736 10.8871 12.12C11.0024 12.1663 11.1258 12.1892 11.25 12.1875H14.0625V15C14.0607 15.1242 14.0837 15.2475 14.13 15.3628C14.1763 15.4781 14.2451 15.583 14.3324 15.6715C14.4196 15.76 14.5235 15.8302 14.6381 15.8782C14.7528 15.9261 14.8758 15.9508 15 15.9508C15.1242 15.9508 15.2472 15.9261 15.3619 15.8782C15.4765 15.8302 15.5804 15.76 15.6677 15.6715C15.7549 15.583 15.8237 15.4781 15.87 15.3628C15.9163 15.2475 15.9393 15.1242 15.9375 15V12.1875H18.75C18.8742 12.1892 18.9976 12.1663 19.1129 12.12C19.2281 12.0736 19.3331 12.0049 19.4215 11.9176C19.51 11.8304 19.5803 11.7265 19.6282 11.6118C19.6762 11.4972 19.7009 11.3742 19.7009 11.25C19.7009 11.1257 19.6762 11.0027 19.6282 10.8881C19.5803 10.7735 19.51 10.6696 19.4215 10.5823C19.3331 10.4951 19.2281 10.4263 19.1129 10.38C18.9976 10.3337 18.8742 10.3107 18.75 10.3125H15.9375V7.49998C15.9392 7.37455 15.9158 7.25005 15.8685 7.13386C15.8212 7.01767 15.7511 6.91214 15.6623 6.82352C15.5736 6.73491 15.4679 6.66501 15.3516 6.61797C15.2353 6.57093 15.1108 6.5477 14.9854 6.54966ZM14.9982 17.8161C14.6806 17.8161 14.363 17.8708 14.0607 17.9809C13.7513 18.0934 13.4607 18.2524 13.1982 18.468C9.59262 21.4596 6.42018 23.2316 4.79737 24.0472C4.47205 24.2113 4.4486 24.6671 4.75891 24.8584C6.0836 25.6731 9.51447 27.1783 14.7748 27.1783C19.9479 27.1783 23.7531 25.6824 25.2081 24.8602C25.5344 24.6765 25.5199 24.2059 25.1862 24.0381C23.5455 23.2131 20.3671 21.438 16.7999 18.468C16.5374 18.2524 16.246 18.0934 15.9357 17.9809C15.6333 17.8708 15.3157 17.8161 14.9982 17.8161Z" fill="#187A3F"/>
</svg>
