<svg width="156" height="28" viewBox="0 0 156 28" fill="none" xmlns="http://www.w3.org/2000/svg">
<path d="M10.6081 25.9535C8.4046 25.9535 6.50543 25.4813 4.91055 24.537C3.33666 23.5717 2.11951 22.2391 1.25912 20.5393C0.419705 18.8185 0 16.8354 0 14.59C0 12.3446 0.419705 10.3615 1.25912 8.64067C2.11951 6.91987 3.33666 5.57682 4.91055 4.6115C6.50543 3.64617 8.4046 3.16351 10.6081 3.16351C13.2732 3.16351 15.4556 3.82455 17.1555 5.14662C18.8553 6.46869 19.915 8.33638 20.3347 10.7497H15.7075C15.4347 9.57451 14.8576 8.66165 13.9762 8.01111C13.1158 7.33958 11.9826 7.00382 10.5766 7.00382C9.27549 7.00382 8.15277 7.31859 7.20844 7.94815C6.28509 8.55673 5.57159 9.42761 5.06794 10.5608C4.56429 11.673 4.31247 13.0161 4.31247 14.59C4.31247 16.1429 4.56429 17.486 5.06794 18.6192C5.57159 19.7524 6.28509 20.6233 7.20844 21.2318C8.15277 21.8404 9.27549 22.1447 10.5766 22.1447C11.9826 22.1447 13.1158 21.8404 13.9762 21.2318C14.8366 20.6023 15.4032 19.7314 15.676 18.6192H20.3347C19.915 20.9066 18.8553 22.7008 17.1555 24.0019C15.4556 25.303 13.2732 25.9535 10.6081 25.9535Z" fill="#EFEEEC"/>
<path d="M48.6479 25.5758V3.54125H52.8974V22.2706H62.5611V25.5758H48.6479Z" fill="#EFEEEC"/>
<path d="M66.2005 25.5758V3.54125H70.45V22.2706H80.1137V25.5758H66.2005Z" fill="#EFEEEC"/>
<path d="M83.7531 25.5758V3.54125H98.2329V6.97234H88.0026V12.7328H97.2886V16.038H88.0026V22.1447H98.2329V25.5758H83.7531Z" fill="#EFEEEC"/>
<path d="M102.105 25.5758V3.54125H116.585V6.97234H106.354V12.7328H115.64V16.038H106.354V22.1447H116.585V25.5758H102.105Z" fill="#EFEEEC"/>
<path d="M119.827 25.5758V22.3021L129.995 7.06677H119.89V3.54125H134.874V6.81495L124.675 22.0502H134.937V25.5758H119.827Z" fill="#EFEEEC"/>
<path d="M144.322 25.5758V17.8322L136.893 3.54125H141.709L146.903 14.4326H146.053L151.215 3.54125H156L148.571 17.8322V25.5758H144.322Z" fill="#EFEEEC"/>
<path d="M34.1518 24.2148V20.6357C34.1518 20.5055 34.0749 20.3895 33.9552 20.3384C32.9861 19.9246 28.7511 17.9731 28.4532 15.3545C28.2118 13.233 29.2446 11.872 30.511 10.2891C32.0328 8.38682 33.4713 7.56284 34.1518 5.2237C34.5729 3.77598 34.3715 1.61476 34.2378 0.585563C34.2051 0.334476 33.9085 0.233926 33.7267 0.410256C32.6978 1.40871 30.0192 4.03986 28.1366 6.17346C25.5534 9.10106 23.8005 11.4686 24.1792 15.3545C24.63 19.9787 31.857 23.631 33.7176 24.4979C33.9234 24.5937 34.1518 24.4418 34.1518 24.2148Z" fill="url(#paint0_linear_311_1982)"/>
<path d="M35.4617 3.32833V6.90748C35.4617 7.03764 35.5385 7.15363 35.6582 7.20474C36.6273 7.61855 40.8624 9.57004 41.1602 12.1886C41.4016 14.3101 40.3688 15.6711 39.1024 17.254C37.5806 19.1563 36.1421 19.9803 35.4617 22.3195C35.0405 23.7672 35.2419 25.9284 35.3756 26.9576C35.4083 27.2087 35.7049 27.3092 35.8867 27.1329C36.9156 26.1344 39.5942 23.5033 41.4768 21.3697C44.06 18.4421 45.8129 16.0745 45.4342 12.1886C44.9835 7.5645 37.7564 3.91216 35.8958 3.04527C35.69 2.94941 35.4617 3.10133 35.4617 3.32833Z" fill="url(#paint1_linear_311_1982)"/>
<g clip-path="url(#clip0_311_1982)">
<path d="M37.4684 13.6564L37.3436 13.6514C35.9805 13.5977 34.8705 12.4879 34.8168 11.1247L34.8118 10.9998C34.8094 10.938 34.7585 10.8892 34.6966 10.8892C34.6347 10.8892 34.5839 10.938 34.5815 10.9998L34.5765 11.1247C34.5228 12.4879 33.4129 13.5977 32.0496 13.6514L31.9249 13.6564C31.8631 13.6588 31.8142 13.7097 31.8142 13.7716C31.8142 13.8335 31.8631 13.8843 31.925 13.8868L32.0498 13.8916C33.4129 13.9455 34.5228 15.0553 34.5765 16.4185L34.5815 16.5433C34.5839 16.6051 34.6347 16.654 34.6966 16.654C34.7585 16.654 34.8094 16.6051 34.8118 16.5433L34.8168 16.4185C34.8705 15.0553 35.9803 13.9455 37.3435 13.8916L37.4683 13.8868C37.5302 13.8843 37.5791 13.8335 37.5791 13.7716C37.5791 13.7097 37.5302 13.6588 37.4684 13.6564Z" fill="#187A3F"/>
</g>
<defs>
<linearGradient id="paint0_linear_311_1982" x1="29.2664" y1="0" x2="29.2664" y2="24.6939" gradientUnits="userSpaceOnUse">
<stop stop-color="#187A3F"/>
<stop offset="1" stop-color="#2CE074"/>
</linearGradient>
<linearGradient id="paint1_linear_311_1982" x1="40.347" y1="27.5432" x2="40.347" y2="2.84929" gradientUnits="userSpaceOnUse">
<stop stop-color="#187A3F"/>
<stop offset="1" stop-color="#2CE074"/>
</linearGradient>
<clipPath id="clip0_311_1982">
<rect width="5.76485" height="5.76485" fill="white" transform="translate(31.8142 10.8892)"/>
</clipPath>
</defs>
</svg>
