<svg width="30" height="30" viewBox="0 0 30 30" fill="none" xmlns="http://www.w3.org/2000/svg">
<path d="M15 4.67834C11.2245 4.67834 7.44872 5.23588 3.77747 6.3501C3.64529 6.39041 3.51256 6.46875 3.40943 6.5625C3.31193 6.65156 3.23488 6.76017 3.18238 6.8811C1.44238 10.8495 1.44238 15.4005 3.18238 19.3689C3.23582 19.4898 3.32292 19.6076 3.42042 19.6967C3.52354 19.7904 3.64435 19.8596 3.77747 19.8999C7.44779 21.0137 11.2247 21.5717 15 21.5717C18.7753 21.5717 22.5513 21.0137 26.2225 19.8999C26.3557 19.8596 26.4774 19.7904 26.5814 19.6967L26.5906 19.6875C26.6881 19.5984 26.7651 19.4898 26.8176 19.3689C28.5586 15.4005 28.5586 10.8495 26.8176 6.8811C26.7642 6.76017 26.6771 6.64241 26.5796 6.55334C26.4765 6.45959 26.3557 6.39041 26.2225 6.3501C22.5513 5.23588 18.7756 4.67834 15 4.67834ZM15 9.375C17.0681 9.375 18.75 11.0569 18.75 13.125C18.75 15.1931 17.0681 16.875 15 16.875C12.9319 16.875 11.25 15.1931 11.25 13.125C11.25 11.0569 12.9319 9.375 15 9.375ZM15 11.25C14.5027 11.25 14.0258 11.4475 13.6742 11.7992C13.3226 12.1508 13.125 12.6277 13.125 13.125C13.125 13.6223 13.3226 14.0992 13.6742 14.4508C14.0258 14.8025 14.5027 15 15 15C15.4973 15 15.9742 14.8025 16.3258 14.4508C16.6775 14.0992 16.875 13.6223 16.875 13.125C16.875 12.6277 16.6775 12.1508 16.3258 11.7992C15.9742 11.4475 15.4973 11.25 15 11.25ZM7.50001 12.1875C8.01751 12.1875 8.43751 12.6075 8.43751 13.125C8.43751 13.6425 8.01751 14.0625 7.50001 14.0625C6.98251 14.0625 6.56251 13.6425 6.56251 13.125C6.56251 12.6075 6.98251 12.1875 7.50001 12.1875ZM22.4597 12.1875C22.9772 12.1875 23.3972 12.6075 23.3972 13.125C23.3972 13.6425 22.9782 14.0625 22.4597 14.0625C21.9422 14.0625 21.5222 13.6425 21.5222 13.125C21.5222 12.6075 21.9422 12.1875 22.4597 12.1875ZM24.6533 22.2748C21.4874 23.0529 18.2494 23.4467 15 23.4467C14.8791 23.4467 14.6632 23.4467 14.5422 23.443C14.1241 23.428 14.0496 23.8897 14.4452 24.0088C18.5889 25.3119 21.9523 25.3125 23.9136 25.3125C24.3139 25.3125 24.6565 25.0531 24.7943 24.6771C25.0268 24.0377 25.1616 23.3933 25.2319 22.7802C25.2694 22.4539 24.973 22.196 24.6533 22.2748Z" fill="#B1ACA0"/>
</svg>
