<svg width="24" height="24" viewBox="0 0 24 24" fill="none" xmlns="http://www.w3.org/2000/svg">
<path d="M3.25354 5.25002C3.82129 3.92702 6.14854 2.83427 7.96129 3.01652C9.06829 3.12752 10.7738 5.22452 10.8578 6.99977C10.9268 8.45027 9.40954 9.89627 9.40954 9.89627C9.40954 9.89627 10.656 10.8675 11.901 12.1125C13.1093 13.2893 14.1173 14.604 14.1173 14.604C14.1173 14.604 15.564 13.086 17.0138 13.1558C18.789 13.2405 20.886 14.946 20.997 16.0523C21.1793 17.8643 20.0865 20.1923 18.7635 20.76C16.1385 21.8865 10.8885 19.1258 7.88854 16.1258C4.88854 13.1258 2.12704 7.87502 3.25354 5.25002Z" stroke="#187A3F" stroke-width="1.5" stroke-miterlimit="10" stroke-linecap="round" stroke-linejoin="round"/>
<path d="M3.25354 5.25002C3.82129 3.92702 6.14854 2.83427 7.96129 3.01652C9.06829 3.12752 10.7738 5.22452 10.8578 6.99977C10.9268 8.45027 9.40954 9.89627 9.40954 9.89627C9.40954 9.89627 10.656 10.8675 11.901 12.1125C13.1093 13.2893 14.1173 14.604 14.1173 14.604C14.1173 14.604 15.564 13.086 17.0138 13.1558C18.789 13.2405 20.886 14.946 20.997 16.0523C21.1793 17.8643 20.0865 20.1923 18.7635 20.76C16.1385 21.8865 10.8885 19.1258 7.88854 16.1258C4.88854 13.1258 2.12704 7.87502 3.25354 5.25002Z" stroke="#187A3F" stroke-width="1.5" stroke-miterlimit="10" stroke-linecap="round" stroke-linejoin="round"/>
</svg>
