<svg width="30" height="30" viewBox="0 0 30 30" fill="none" xmlns="http://www.w3.org/2000/svg">
<path d="M24.8419 19.1306C24.2897 18.2934 23.3513 17.8125 22.2675 17.8125C20.8809 17.8125 20.0391 18.5663 19.2262 19.2938C19.0575 19.4447 18.8831 19.5975 18.7022 19.7503C18.6694 20.1244 18.5972 20.4956 18.4472 20.85C17.9484 22.0303 16.5806 23.4375 12.8906 23.4375C12.3722 23.4375 11.9531 23.0184 11.9531 22.5C11.9531 21.9816 12.3722 21.5625 12.8906 21.5625C14.9672 21.5625 16.3266 21.0506 16.7194 20.1216C16.89 19.7175 16.8806 19.2328 16.7653 18.7556C16.6041 18.5934 16.425 18.4434 16.2309 18.3084C13.665 16.5309 9.55219 16.3275 6.67031 17.8388C4.78687 18.825 3.75 20.3972 3.75 22.2656C3.75 24.4416 5.71875 28.125 13.0959 28.125C20.0906 28.125 24.3862 23.43 25.0791 21.8119C25.4569 20.9306 25.3687 19.9284 24.8419 19.1306ZM15 13.8309C15.4388 14.1966 15.9047 14.5341 16.395 14.8444C16.6134 14.9822 16.8844 15.0366 17.1347 14.9747C18.0684 14.745 18.9234 14.2519 19.5891 13.5553C19.7663 13.3697 19.8534 13.1109 19.845 12.855C19.8253 12.2728 19.7709 11.6991 19.6734 11.1375C20.2078 10.9378 20.7309 10.7034 21.2419 10.4334C21.4725 10.3116 21.6562 10.1006 21.7284 9.85032C21.9947 8.92594 21.9947 7.95 21.7284 7.02563C21.6562 6.77532 21.4725 6.56438 21.2419 6.4425C20.7309 6.1725 20.2087 5.93813 19.6734 5.73844C19.7709 5.17688 19.8291 4.60407 19.8506 4.02188C19.86 3.765 19.7719 3.50532 19.5947 3.31969C18.9291 2.62407 18.0694 2.13094 17.1356 1.90125C16.8844 1.83938 16.6144 1.89375 16.3959 2.03157C15.9047 2.34 15.4388 2.67844 15 3.04313C14.5612 2.6775 14.0953 2.34 13.605 2.02969C13.3866 1.89188 13.1156 1.8375 12.8653 1.89938C11.9316 2.12907 11.0766 2.62219 10.4109 3.31875C10.2337 3.50438 10.1466 3.76313 10.155 4.01907C10.1747 4.60125 10.2291 5.175 10.3266 5.73657C9.79219 5.93625 9.26906 6.17063 8.75812 6.44063C8.5275 6.56344 8.34375 6.77438 8.27156 7.02469C8.00531 7.94907 8.00531 8.925 8.27156 9.84938C8.34375 10.1006 8.5275 10.3116 8.75812 10.4334C9.26906 10.7034 9.79125 10.9378 10.3266 11.1375C10.2291 11.6991 10.1709 12.2719 10.1494 12.8541C10.14 13.1109 10.2281 13.3706 10.4053 13.5563C11.0709 14.2519 11.9269 14.7413 12.8606 14.9691C13.11 15.03 13.3791 14.9766 13.5975 14.8397C14.0897 14.5313 14.5612 14.1975 15 13.8309ZM13.125 8.4375C13.125 7.4025 13.9641 6.5625 15 6.5625C16.0359 6.5625 16.875 7.4025 16.875 8.4375C16.875 9.4725 16.0359 10.3125 15 10.3125C13.9641 10.3125 13.125 9.4725 13.125 8.4375Z" fill="#187A3F"/>
</svg>
