<svg width="30" height="30" viewBox="0 0 30 30" fill="none" xmlns="http://www.w3.org/2000/svg">
<path d="M9.28124 2.19375C7.96874 6.06563 8.41874 9.30938 9.01874 11.3344C7.38749 10.575 5.73749 9.525 4.50937 8.07187C4.45312 7.99687 4.40624 7.92188 4.36874 7.82813C3.28124 5.29688 4.39687 3.35625 4.44374 3.27188C4.57499 3.04688 4.79999 2.8875 5.05312 2.83125C5.16562 2.8125 6.81562 2.46562 9.28124 2.19375ZM18.6562 2.00625C20.7 7.125 19.2 11.0625 18.6187 12.2625C16.725 12.8813 15.2625 13.0969 15.1312 13.1156C15.0844 13.125 15.0469 13.125 15 13.125C14.9531 13.125 14.9156 13.125 14.8687 13.1156C14.7375 13.0969 13.275 12.8813 11.3906 12.2719C10.8187 11.0813 9.30937 7.10625 11.3437 2.00625C12.4781 1.93125 13.7062 1.875 15 1.875C16.2937 1.875 17.5219 1.93125 18.6562 2.00625ZM25.6312 7.82813C25.5937 7.92188 25.5469 7.99687 25.4906 8.07187C24.2625 9.525 22.6125 10.575 20.9812 11.3344C21.5812 9.30938 22.0312 6.06563 20.7187 2.19375C23.1844 2.46562 24.8344 2.8125 24.9469 2.83125C25.2 2.8875 25.425 3.04688 25.5562 3.27188C25.6031 3.35625 26.7187 5.29688 25.6312 7.82813ZM22.4203 19.1756C22.2778 18.7566 21.9384 18.4069 21.4669 18.1903C20.5987 17.7919 19.2937 17.4816 17.9334 17.3484C17.3812 16.2469 16.7166 15.2644 16.1297 14.6878C15.4575 14.0306 14.4525 14.0531 13.7569 14.7853C13.1934 15.3816 12.5841 16.305 12.0628 17.3475C10.7044 17.4816 9.39937 17.7919 8.53218 18.1884C8.05968 18.405 7.72124 18.7547 7.5778 19.1747C7.44374 19.5703 7.47749 19.995 7.6753 20.4047C8.03812 21.1584 8.76843 22.1175 9.65155 23.0063C9.42468 24.3328 9.37593 25.605 9.52124 26.5312C9.60093 27.0441 9.84655 27.465 10.2103 27.7153C10.5525 27.9525 10.9697 28.0369 11.4216 27.9572C12.3919 27.7866 13.7691 27.2034 14.9972 26.4497C16.2262 27.2044 17.6034 27.7875 18.5747 27.9581C18.6834 27.9769 18.7903 27.9853 18.8953 27.9853C19.2225 27.9853 19.5253 27.8944 19.7831 27.7162C20.1487 27.465 20.3934 27.0441 20.4731 26.5312C20.6184 25.6069 20.5706 24.3328 20.3428 23.0063C21.2259 22.1175 21.9572 21.1575 22.3191 20.4047C22.5206 19.9959 22.5544 19.5713 22.4203 19.1756Z" fill="#187A3F"/>
</svg>
